<!-- Generator: Adobe Illustrator 21.1.0, SVG Export Plug-In  -->
<svg version="1.1"
	 xmlns="http://www.w3.org/2000/svg" xmlns:xlink="http://www.w3.org/1999/xlink" xmlns:a="http://ns.adobe.com/AdobeSVGViewerExtensions/3.0/"
	 x="0px" y="0px" width="2317.987px" height="288.14px" viewBox="0 0 2317.987 288.14"
	 style="overflow:scroll;enable-background:new 0 0 2317.987 288.14;" xml:space="preserve">
<style type="text/css">
	.st0{fill:#FFFFFF;}
</style>
<defs>
</defs>
<g>
	<g>
		<path class="st0" d="M416.744,83.317V202.19c0,10.82,0.096,21.494,0.293,32.021h71.207l18.715-38.747l6.579-1.024l-3.217,52.346
			l-0.877,1.023c-25.247-0.292-48.594-0.438-70.037-0.438h-36.7c-11.795,0-23.884,0.146-36.261,0.438l-0.585-6.287l17.985-5.41
			c2.435-0.681,3.751-2.193,3.947-4.533c0.096-3.897,0.169-8.261,0.219-13.086c0.049-4.825,0.074-10.162,0.074-16.011V83.902
			c0-4.971-0.025-9.453-0.074-13.452c-0.05-3.996-0.123-7.603-0.219-10.82c-0.099-2.533-1.268-4.189-3.509-4.971l-18.131-5.702
			l-0.293-6.287c12.575,0.391,24.661,0.585,36.261,0.585c11.698,0,23.784-0.194,36.261-0.585l0.585,6.287l-18.131,5.409
			c-2.34,0.585-3.608,2.097-3.802,4.533c-0.098,3.414-0.171,8.385-0.219,14.914C416.768,80.345,416.744,83.513,416.744,83.317z"/>
		<path class="st0" d="M583.138,202.483c0,5.848,0.023,11.162,0.074,15.938c0.048,4.777,0.121,9.115,0.219,13.012
			c0.096,2.438,1.802,4.095,5.117,4.972l16.522,5.117l0.293,6.287c-12.575-0.292-24.662-0.438-36.261-0.438
			c-11.795,0-23.884,0.146-36.261,0.438l-0.585-6.287l17.985-5.41c2.435-0.681,3.751-2.193,3.948-4.533
			c0.096-3.897,0.169-8.261,0.219-13.086c0.049-4.825,0.074-10.162,0.074-16.011V83.902c0-4.971-0.025-9.453-0.074-13.452
			c-0.05-3.996-0.123-7.603-0.219-10.82c-0.099-2.533-1.268-4.189-3.509-4.971l-18.131-5.702l-0.293-6.287
			c12.575,0.391,24.661,0.585,36.261,0.585c11.698,0,23.784-0.194,36.261-0.585l0.585,6.287l-18.131,5.409
			c-2.34,0.585-3.608,2.097-3.802,4.533c-0.098,3.414-0.171,7.142-0.219,11.186c-0.05,4.046-0.074,8.458-0.074,13.232V202.483z"/>
		<path class="st0" d="M669.551,84.341v118.142c0,11.503,0.096,21.055,0.293,28.658c0.096,2.73,1.316,4.387,3.656,4.971l17.4,5.117
			l0.292,6.579c-12.186-0.292-22.177-0.438-29.974-0.438c-7.603,0-17.692,0.146-30.267,0.438l-0.585-6.287l17.984-5.41
			c2.533-0.779,3.85-2.289,3.948-4.533c0.194-7.896,0.293-17.594,0.293-29.097V83.902c0-9.746-0.099-17.838-0.293-24.272
			c-0.098-2.533-1.268-4.189-3.509-4.971l-18.131-5.702l-0.292-6.287c12.574,0.391,22.517,0.585,29.828,0.585
			c4.387,0,8.821-0.194,13.306-0.585l122.821,153.38V83.317c0-9.454-0.098-17.594-0.292-24.418
			c-0.099-2.241-1.366-3.751-3.802-4.533l-17.253-4.971l-0.292-6.726c12.476,0.391,22.565,0.585,30.266,0.585
			c7.798,0,17.789-0.194,29.975-0.585l0.585,6.287l-18.423,5.702c-2.243,0.782-3.413,2.438-3.508,4.971
			c-0.197,6.434-0.293,14.526-0.293,24.272v163.469l-12.282,1.17L669.551,84.341z"/>
		<path class="st0" d="M895.151,247.371c-11.789,0-23.872,0.146-36.25,0.438l-0.585-6.287l17.985-5.41
			c2.533-0.779,3.849-2.289,3.948-4.533c0.096-3.897,0.169-8.261,0.219-13.086c0.049-4.825,0.074-10.162,0.074-16.011V83.902
			c0-4.971-0.025-9.453-0.074-13.452c-0.05-3.996-0.123-7.603-0.219-10.82c-0.099-2.533-1.268-4.189-3.509-4.971l-18.131-5.702
			l-0.293-6.287c12.575,0.391,24.804,0.585,36.689,0.585c9.737,0,19.136-0.242,28.194-0.731c9.056-0.487,18.359-0.731,27.905-0.731
			c34.086,0,59.701,7.774,76.843,23.322c17.141,15.549,25.713,38.626,25.713,69.233c0,36.067-9.522,64.068-28.562,84.001
			c-19.04,19.935-45.752,29.901-80.13,29.901c-9.449,0-17.873-0.146-25.275-0.439C912.29,247.517,904.112,247.371,895.151,247.371z
			 M909.199,234.358c5.751,0.782,11.38,1.293,16.888,1.535c5.506,0.244,11.039,0.365,16.596,0.365
			c25.734,0,45.326-7.578,58.779-22.736c13.451-15.156,20.177-38.382,20.177-69.672c0-30.413-6.385-52.953-19.154-67.625
			c-12.771-14.67-32.996-22.005-60.679-22.005c-4.386,0-9.237,0.098-14.549,0.292c-5.314,0.196-11.331,0.537-18.058,1.024V234.358z"
			/>
		<path class="st0" d="M1134.078,83.317V202.19c0,10.82,0.095,21.494,0.293,32.021h71.207l18.717-38.747l6.579-1.024l-3.216,52.346
			l-0.877,1.023c-25.249-0.292-48.594-0.438-70.037-0.438h-36.7c-11.796,0-23.884,0.146-36.261,0.438l-0.585-6.287l17.985-5.41
			c2.435-0.681,3.751-2.193,3.947-4.533c0.096-3.897,0.169-8.261,0.219-13.086c0.048-4.825,0.073-10.162,0.073-16.011V83.902
			c0-4.971-0.025-9.453-0.073-13.452c-0.05-3.996-0.123-7.603-0.219-10.82c-0.099-2.533-1.268-4.189-3.509-4.971l-18.131-5.702
			l-0.293-6.287c12.575,0.391,24.661,0.585,36.261,0.585c11.698,0,23.783-0.194,36.262-0.585l0.584,6.287l-18.13,5.409
			c-2.34,0.585-3.608,2.097-3.802,4.533c-0.099,3.414-0.171,8.385-0.22,14.914C1134.101,80.345,1134.078,83.513,1134.078,83.317z"/>
		<path class="st0" d="M1285.851,43.254h35.531c21.833,0,44.887-0.194,69.159-0.585l0.878,1.17l-8.48,45.18l-5.849,1.024
			l-9.066-33.776h-67.552v80.419h13.306c10.136,0,21.444-0.096,33.922-0.292c2.534-0.096,4.19-1.364,4.973-3.802l5.117-19.739
			l7.895-0.293c-0.291,13.649-0.438,23.737-0.438,30.267c0,6.338,0.147,16.281,0.438,29.828l-7.895,0.585l-5.264-20.032
			c-0.781-2.533-2.292-3.85-4.533-3.947c-12.672-0.194-24.125-0.293-34.36-0.293h-13.16v53.222c0,10.82,0.097,21.494,0.293,32.021
			h70.183l17.839-37.139l6.58-1.169l-3.217,50.883l-1.024,1.023c-25.247-0.292-48.544-0.438-69.892-0.438h-34.8
			c-11.796,0-23.882,0.146-36.261,0.438l-0.584-6.287l17.984-5.41c2.436-0.681,3.75-2.193,3.948-4.533
			c0.096-3.897,0.168-8.261,0.22-13.086c0.047-4.825,0.073-10.162,0.073-16.011V83.902c0-4.971-0.026-9.453-0.073-13.452
			c-0.052-3.996-0.124-7.603-0.22-10.82c-0.099-2.533-1.268-4.189-3.509-4.971l-18.13-5.702l-0.293-6.287
			C1262.163,43.06,1274.25,43.254,1285.851,43.254z"/>
		<path class="st0" d="M1506.893,143.266l33.812-63.896c2.436-4.679,4.483-8.675,6.14-11.99c1.656-3.312,2.486-6.043,2.486-8.188
			c0-3.02-2.144-5.117-6.433-6.287l-13.159-3.509l-0.293-6.726c10.528,0.391,21.297,0.585,32.314,0.585
			c10.623,0,20.957-0.194,30.998-0.585l0.584,6.287l-14.768,4.678c-3.509,1.074-6.213,2.778-8.115,5.117
			c-1.9,2.34-3.826,5.216-5.775,8.627l-50.591,90.215v44.449c0,5.849,0.023,11.163,0.073,15.938
			c0.049,4.777,0.121,9.116,0.22,13.013c0.096,2.438,1.803,4.094,5.118,4.971l18.13,5.557l0.293,6.287
			c-13.649-0.292-26.246-0.438-37.795-0.438c-11.846,0-24.493,0.146-37.945,0.438l-0.585-6.287l19.594-5.848
			c2.436-0.681,3.75-2.194,3.948-4.533c0.095-3.897,0.168-8.261,0.22-13.087c0.047-4.825,0.073-10.161,0.073-16.011v-41.379
			l-51.468-89.191c-3.608-5.945-6.557-10.235-8.847-12.867c-2.291-2.632-5.337-4.483-9.137-5.557l-13.306-4.094l-0.293-6.287
			c8.869,0.391,20.858,0.585,35.969,0.585c13.159,0,26.757-0.194,40.794-0.585l0.585,6.287l-13.744,3.801
			c-2.047,0.489-3.509,1.195-4.387,2.12c-0.876,0.928-1.316,2.072-1.316,3.436c0,2.047,0.755,4.558,2.267,7.53
			c1.51,2.975,3.385,6.41,5.629,10.308L1506.893,143.266z"/>
		<path class="st0" d="M1719.818,83.317V202.19c0,10.82,0.097,21.494,0.293,32.021h71.207l18.717-38.747l6.579-1.024l-3.217,52.346
			l-0.877,1.023c-25.248-0.292-48.594-0.438-70.037-0.438h-36.701c-11.796,0-23.882,0.146-36.261,0.438l-0.584-6.287l17.984-5.41
			c2.436-0.681,3.75-2.193,3.948-4.533c0.096-3.897,0.168-8.261,0.22-13.086c0.047-4.825,0.073-10.162,0.073-16.011V83.902
			c0-4.971-0.026-9.453-0.073-13.452c-0.052-3.996-0.124-7.603-0.22-10.82c-0.099-2.533-1.268-4.189-3.509-4.971l-18.13-5.702
			l-0.293-6.287c12.573,0.391,24.66,0.585,36.261,0.585c11.697,0,23.782-0.194,36.261-0.585l0.584,6.287l-18.13,5.409
			c-2.34,0.585-3.608,2.097-3.802,4.533c-0.099,3.414-0.171,8.385-0.22,14.914C1719.841,80.345,1719.818,83.513,1719.818,83.317z"/>
		<path class="st0" d="M1938.557,39.599l64.921,178.822c2.436,6.726,4.653,11.284,6.651,13.671c1.997,2.39,4.848,4.167,8.555,5.337
			l13.744,4.094l0.293,6.287c-12.772-0.292-24.615-0.438-35.531-0.438c-11.113,0-24.225,0.146-39.332,0.438l-0.585-6.287
			l13.891-4.094c1.949-0.681,3.338-1.438,4.167-2.266c0.827-0.827,1.242-2.12,1.242-3.875c0-1.949-0.511-4.508-1.535-7.677
			c-1.024-3.167-2.463-7.384-4.313-12.648l-13.744-39.185h-70.477l-15.352,39.039c-2.047,5.46-3.656,9.797-4.826,13.013
			c-1.169,3.217-1.755,5.753-1.755,7.603c0,1.659,0.461,2.902,1.389,3.729c0.925,0.829,2.314,1.535,4.167,2.12l13.597,3.947
			l0.293,6.579c-13.843-0.292-25.148-0.438-33.921-0.438s-18.57,0.146-29.39,0.438l-0.731-6.287l14.768-4.533
			c3.703-1.17,6.435-2.972,8.189-5.41c1.755-2.436,3.703-6.237,5.848-11.405l74.716-178.383L1938.557,39.599z M1891.915,158.472
			h60.241l-28.512-80.565L1891.915,158.472z"/>
		<path class="st0" d="M2213.003,248.541l-51.321-155.72l-53.662,154.55l-14.768,1.17l-58.486-179.553
			c-1.561-4.581-3.339-8.116-5.337-10.601c-1.999-2.486-4.803-4.263-8.408-5.337l-13.306-4.094l-0.291-6.287
			c9.551,0.391,20.858,0.585,33.922,0.585c11.792,0,25.148-0.194,40.063-0.585l0.584,6.287l-13.744,3.947
			c-2.047,0.489-3.509,1.22-4.386,2.194c-0.878,0.975-1.316,2.389-1.316,4.24c0,1.951,0.461,4.509,1.389,7.676
			c0.925,3.169,2.169,7.336,3.729,12.501l39.624,125.6l54.246-162.153l13.16-1.024l52.784,164.639l41.232-126.915
			c1.755-5.556,3.118-9.991,4.093-13.305c0.973-3.313,1.463-5.849,1.463-7.604c0-1.755-0.44-3.02-1.316-3.801
			c-0.878-0.779-2.292-1.412-4.24-1.901l-13.744-3.656l-0.293-6.726c10.528,0.391,21.201,0.585,32.021,0.585
			c10.528,0,20.763-0.194,30.705-0.585l0.585,6.287l-14.768,4.678c-2.925,0.877-5.241,2.244-6.946,4.095
			c-1.706,1.852-3.388,5.069-5.044,9.65l-63.459,179.992L2213.003,248.541z"/>
	</g>
</g>
<g>
	<g>
		<path class="st0" d="M208.648,109.444c-3.782-6.81-8.338-12.897-13.972-18.31c0,7.793,0,15.508,0,23.225
			c1.409,2.291,2.558,4.765,3.659,7.296c15.897,0,31.751,0,47.758,0c-0.059-0.314-0.107-0.654-0.187-0.987
			c-0.173-0.721-0.451-1.397-0.524-2.169c-0.092-0.975-0.494-1.926-0.794-2.876c-0.727-2.296-1.416-4.606-2.228-6.872
			c-0.721-2.013-1.484-4.011-2.322-5.984c-1.127-2.654-2.459-5.198-3.769-7.757c-0.672-1.312-1.491-2.551-2.185-3.844
			c-1.057-1.972-2.284-3.817-3.571-5.632c-1.086-1.531-2.055-3.133-3.263-4.592c-1.565-1.889-3.091-3.812-4.657-5.702
			c-0.743-0.896-1.531-1.737-2.33-2.569c-1.448-1.506-2.944-2.966-4.426-4.44c-0.597-0.594-1.18-1.206-1.82-1.75
			c-0.533-0.453-1.108-0.854-1.615-1.342c-0.59-0.568-1.267-1.059-1.858-1.6c-2.012-1.843-4.276-3.349-6.455-4.949
			c-2.085-1.53-4.255-2.974-6.527-4.248c-3.065-1.718-6.11-3.471-9.326-4.896c-2.386-1.057-4.75-2.145-7.222-3.025
			c-2.316-0.825-4.624-1.66-6.978-2.372c-1.666-0.504-3.357-0.912-5.041-1.347c-1.485-0.383-3.006-0.636-4.454-1.105
			c-0.569-0.184-1.081-0.09-1.604-0.206c-0.464-0.103-0.921-0.234-1.386-0.334c-0.572-0.124-1.144-0.271-1.724-0.329
			c-0.559-0.056-1.142,0.064-1.69-0.031c-0.774-0.134-1.524-0.407-2.29-0.593c-0.263-0.064-0.549-0.078-0.821-0.062
			c-2.789,0.169-5.536-0.493-8.333-0.371c-2.818,0.123-5.647,0-8.47,0.043c-0.915,0.014-1.824,0.256-2.741,0.311
			c-0.957,0.057-1.982-0.193-2.862,0.072c-0.826,0.249-1.692,0.036-2.398,0.33c-0.828,0.345-1.628,0.155-2.42,0.3
			c-1.776,0.326-3.581,0.592-5.288,1.148c-0.716,0.233-1.578-0.17-2.145,0.534c-1.93,0.11-3.715,0.8-5.541,1.345
			c-2.108,0.629-4.212,1.257-6.277,2.027c-2.055,0.767-4.157,1.407-6.128,2.388c-1.637,0.815-3.339,1.48-4.964,2.34
			c-2.836,1.501-5.692,2.941-8.401,4.683c-1.344,0.864-2.63,1.843-4.002,2.611c-1.738,0.972-3.113,2.41-4.873,3.337
			c-0.948,0.499-1.661,1.428-2.524,2.107c-0.592,0.466-1.132,0.989-1.734,1.446c-0.624,0.474-1.073,1.181-1.702,1.644
			c-2.362,1.738-4.216,4.001-6.311,6.013c-2.102,2.018-3.87,4.328-5.667,6.617c-0.837,1.065-1.71,2.102-2.49,3.214
			c-0.678,0.966-1.339,1.948-2.086,2.859c-0.785,0.957-1.238,2.127-2.089,3.044c-0.536,0.578-0.803,1.36-1.255,2.023
			c-0.795,1.164-1.4,2.46-2.064,3.711c-1.104,2.083-2.318,4.12-3.25,6.279c-0.992,2.296-2.037,4.574-2.884,6.939
			c-0.847,2.364-1.66,4.736-2.437,7.123c-0.377,1.158-0.59,2.349-0.917,3.515c-0.355,1.267-0.682,2.542-1.02,3.814
			c1.296,0.332,36.204,0.47,47.63,0.188c0.807-1.126,1.159-2.469,1.839-3.652c0.68-1.183,1.284-2.41,1.999-3.765
			c0-7.527,0-15.248,0-23.16c-5.675,5.472-10.173,11.621-13.985,18.408c-2.373,0-4.791,0-7.209,0c-3.106,0-6.213-0.008-9.319,0.008
			c-0.514,0.003-1.027,0.108-1.625,0.175c-0.024-0.024-0.144-0.144-0.319-0.319c0.075-0.096,0.182-0.189,0.234-0.306
			c1.092-2.488,2.208-4.964,3.463-7.376c0.436-0.838,0.779-1.766,1.382-2.464c0.856-0.989,1.179-2.255,1.981-3.268
			c0.784-0.991,1.258-2.236,2.084-3.182c1.361-1.559,2.388-3.352,3.757-4.911c1.562-1.779,3.091-3.585,4.678-5.346
			c0.948-1.052,2.049-1.919,3.011-2.941c0.968-1.027,1.921-2.086,3.004-2.983c1.83-1.515,3.666-3.022,5.615-4.399
			c1.707-1.206,3.358-2.498,5.113-3.638c1.417-0.92,2.856-1.811,4.331-2.633c1.876-1.045,3.828-1.957,5.684-3.034
			c0.648-0.376,1.409-0.37,2.019-0.898c0.53-0.46,1.294-0.659,1.97-0.934c0.189-0.077,0.435-0.012,0.717-0.012
			c0,19.399,0,38.754,0,57.963c-0.69,1.061-1.337,2.042-1.97,3.033c-1.585,2.482-2.892,5.125-3.898,7.871
			c-0.682,1.863-1.348,3.779-1.556,5.806c-0.07,0.683-0.382,1.341-0.333,2.067c0.01,0.152-0.283,0.324-0.441,0.492
			c-26.132,0-52.266,0-78.536,0c0.218-1.105-0.309-2.215,0.367-3.25c0.078-0.119,0.029-0.334,0.008-0.501
			c-0.242-1.896,0.414-3.733,0.362-5.621c-0.016-0.571,0.214-1.147,0.316-1.723c0.093-0.524-0.131-1.058,0.287-1.59
			c0.22-0.281,0.007-0.875,0.067-1.317c0.056-0.413,0.245-0.806,0.321-1.218c0.242-1.315,0.438-2.639,0.689-3.953
			c0.238-1.241,0.735-2.44,0.943-3.661c0.34-1.997,1.048-3.884,1.45-5.857c0.238-1.17,0.804-2.269,1.106-3.431
			c0.581-2.237,1.816-4.242,2.256-6.523c0.01-0.052,0.009-0.112,0.036-0.154c1.426-2.215,2.125-4.77,3.299-7.11
			c1.031-2.055,2.054-4.118,3.115-6.159c1.683-3.239,3.691-6.284,5.674-9.344c1.729-2.668,3.696-5.152,5.63-7.666
			c1.138-1.479,2.383-2.86,3.577-4.287c1.291-1.544,2.707-2.952,4.095-4.396c0.37-0.384,0.575-0.955,0.988-1.261
			c0.367-0.273,0.656-0.57,0.952-0.905c0.309-0.35,0.757-0.574,1.118-0.884c0.594-0.508,1.021-1.166,1.64-1.677
			c1.454-1.201,2.723-2.634,4.215-3.781c1.545-1.189,3.052-2.436,4.552-3.668c3.039-2.496,6.392-4.516,9.593-6.76
			c1.502-1.053,3.153-1.905,4.778-2.768c2.774-1.474,5.548-2.956,8.386-4.299c2.025-0.958,4.067-1.885,6.187-2.654
			c1.814-0.658,3.624-1.345,5.422-2.043c1.618-0.629,3.295-1.031,4.919-1.615c1.284-0.462,2.684-0.601,3.966-1.067
			c1.546-0.562,3.25-0.452,4.735-1.251c0.55-0.296,1.231-0.085,1.882-0.362c0.814-0.346,1.832-0.178,2.708-0.424
			c0.894-0.251,1.877-0.096,2.679-0.471c0.881-0.412,1.906,0.246,2.672-0.513c0.029-0.028,0.11,0,0.166-0.004
			c1.478-0.112,2.975-0.115,4.43-0.362c2.717-0.462,5.473-0.036,8.156-0.391c1.894-0.251,3.758-0.13,5.63-0.267
			c1.162-0.085,2.23,0.505,3.421,0.371c1.171-0.131,2.416-0.231,3.542,0.029c1.102,0.254,2.174,0.21,3.261,0.293
			c0.58,0.045,1.146,0.248,1.726,0.317c0.533,0.064,1.091-0.102,1.568,0.332c0.124,0.112,0.442,0.05,0.661,0.011
			c1.063-0.188,2.052,0.243,3.079,0.35c1.004,0.105,1.976,0.455,2.949,0.609c1.325,0.209,2.65,0.43,3.94,0.762
			c2.699,0.694,5.448,1.211,8.075,2.177c0.443,0.163,0.915,0.247,1.374,0.365c2.336,0.603,4.526,1.626,6.809,2.374
			c1.893,0.621,3.661,1.528,5.525,2.214c1.709,0.629,3.288,1.601,4.967,2.321c1.401,0.601,2.705,1.382,4.046,2.085
			c1.301,0.683,2.542,1.542,3.839,2.209c1.882,0.968,3.464,2.424,5.455,3.178c1.068,1.178,2.55,1.788,3.773,2.752
			c1.443,1.137,2.942,2.198,4.389,3.332c2.691,2.11,5.233,4.374,7.75,6.686c1.224,1.124,2.49,2.213,3.64,3.411
			c1.457,1.517,2.826,3.118,4.287,4.637c1.366,1.42,2.641,2.939,3.838,4.505c1.983,2.596,3.974,5.184,5.757,7.935
			c0.866,1.336,1.769,2.668,2.645,4.003c2.047,3.122,3.83,6.403,5.431,9.776c0.606,1.276,1.382,2.464,1.882,3.795
			c0.899,2.394,2.202,4.617,2.902,7.103c0.365,1.297,1.21,2.474,1.48,3.779c0.461,2.23,1.7,4.219,1.882,6.515
			c0.843,0.947,0.542,2.234,0.978,3.322c0.408,1.02,0.457,2.178,0.726,3.26c0.297,1.195,0.476,2.411,0.723,3.607
			c0.278,1.34,0.361,2.738,0.885,4.027c0.039,0.097,0.066,0.203,0.075,0.307c0.116,1.365,0.212,2.732,0.347,4.095
			c0.08,0.804,0.24,1.599,0.327,2.402c0.081,0.75,0.103,1.485,0.275,2.247c0.264,1.169,0.069,2.442,0.069,3.7
			c-26.239,0-52.372,0-78.485,0c-0.14-0.14-0.26-0.26-0.382-0.382c-0.29-3.133-1.208-6.136-2.323-9.033
			c-1.286-3.341-2.992-6.512-5.228-9.441c0-14.881-0.005-29.847,0.007-44.813c0.001-1.491-0.492-2.923-0.371-4.436
			c0.117-1.459,0.025-2.935,0.025-4.403c0-1.523,0-3.046,0-4.734c0.378,0.076,0.737,0.088,1.046,0.218
			c2.749,1.154,5.438,2.44,8.055,3.866c1.343,0.731,2.631,1.563,3.938,2.357c1.174,0.713,2.352,1.42,3.509,2.161
			c0.764,0.489,1.489,1.04,2.24,1.55c2.06,1.401,3.854,3.141,5.893,4.574c0.728,0.512,1.282,1.268,1.934,1.893
			c0.557,0.534,1.344,0.835,1.639,1.637c0.035,0.096,0.142,0.18,0.235,0.239c1.885,1.204,2.962,3.209,4.619,4.646
			c1.158,1.004,1.956,2.344,2.94,3.494c1.313,1.534,2.367,3.241,3.64,4.793c1.21,1.476,2.16,3.146,3.15,4.784
			c1.74,2.879,3.306,5.847,4.773,8.87c0.52,1.072,0.996,2.166,1.523,3.317C220.947,109.444,214.801,109.444,208.648,109.444z"/>
		<path class="st0" d="M109.865,227.446c-0.33,0-0.583,0.073-0.761-0.011c-2.834-1.34-5.703-2.618-8.468-4.089
			c-1.435-0.763-2.853-1.593-4.231-2.46c-1.347-0.848-2.673-1.741-3.986-2.64c-1.743-1.192-3.294-2.659-4.999-3.911
			c-3.711-2.725-6.788-6.122-9.994-9.375c-2.06-2.09-3.798-4.467-5.593-6.798c-1.513-1.964-2.774-4.082-4.267-6.042
			c-0.683-0.897-1.118-1.927-1.698-2.871c-1.338-2.179-2.408-4.525-3.548-6.822c-0.533-1.075-0.976-2.196-1.487-3.357
			c0.016-0.018,0.122-0.136,0.301-0.335c0.221,0.076,0.473,0.205,0.738,0.24c0.333,0.044,0.676,0.011,1.015,0.011
			c5.421,0,10.843,0,16.248,0c1.691,2.687,3.346,5.387,5.077,8.037c0.708,1.084,1.56,2.078,2.387,3.078
			c0.802,0.969,1.588,1.973,2.524,2.799c0.354,0.312,0.183,0.955,0.886,1.055c0.33,0.047,0.541,0.743,0.861,1.095
			c0.709,0.777,1.658,1.312,2.393,2.213c0-0.433,0-0.866,0-1.298c0-6.89-0.011-13.78,0.013-20.669
			c0.003-0.919-0.276-1.632-0.793-2.396c-0.759-1.121-1.514-2.332-1.859-3.616c-0.25-0.928-0.922-1.544-1.181-2.452
			c-15.84,0-31.693,0-47.684,0c0.113,0.443,0.257,0.868,0.322,1.305c0.063,0.425,0.149,0.812,0.298,1.232
			c0.438,1.232,0.717,2.535,1.004,3.811c0.169,0.75,0.642,1.373,0.701,2.08c0.06,0.719,0.337,1.34,0.525,1.999
			c0.201,0.702,0.462,1.388,0.711,2.076c0.835,2.307,1.803,4.561,2.722,6.835c1.004,2.485,2.234,4.847,3.52,7.181
			c1.246,2.261,2.557,4.488,3.88,6.707c1.145,1.921,2.525,3.669,3.685,5.572c0.786,1.289,1.875,2.396,2.845,3.571
			c0.664,0.804,1.556,1.492,1.979,2.403c0.46,0.991,1.644,1.34,1.861,2.446c0.754,0.271,0.941,1.094,1.516,1.554
			c0.569,0.456,1.049,1.025,1.568,1.544c0.998,0.998,2,1.994,2.994,2.996c1.356,1.366,2.826,2.589,4.375,3.736
			c0.922,0.683,1.706,1.549,2.607,2.284c1.427,1.164,2.912,2.242,4.402,3.315c1.383,0.996,2.798,1.95,4.229,2.877
			c1.812,1.173,3.653,2.287,5.584,3.278c1.956,1.004,3.825,2.181,5.842,3.082c2.621,1.171,5.253,2.306,7.931,3.353
			c2.297,0.897,4.628,1.65,6.969,2.397c1.503,0.479,3.011,0.938,4.55,1.283c1.075,0.242,2.153,0.473,3.299,0.724
			c0-63.182,0-126.249,0-189.286c1.243-0.794,2.648-0.876,3.969-1.195c1.705-0.411,3.498-0.412,5.166-1.034
			c0.099-0.037,0.224-0.01,0.337-0.004c1.718,0.097,3.382-0.559,5.114-0.36c0.337,0.039,0.703-0.178,1.275-0.338
			c0.043,0.119,0.141,0.395,0.24,0.671c0.072-0.06,0.144-0.12,0.216-0.18c0,0.447,0,0.894,0,1.341
			c0,18.636-0.001,37.273,0.002,55.909c0,1.544-0.492,3.036-0.367,4.605c0.121,1.515-0.208,3.096,0.094,4.558
			c0.286,1.389,0.215,2.741,0.261,4.109c0.046,1.354,0.243,2.761-0.039,4.055c-0.569,2.616-0.105,5.229-0.29,7.833
			c0.681,3.038,0.246,6.118,0.322,9.178c0.076,3.048,0.27,6.125-0.048,9.141c-0.39,3.692-0.47,7.393-0.196,11.042
			c0.4,5.328,0.162,10.642,0.242,15.961c0.082,5.42,0.018,10.843,0.018,16.264c0,5.365,0,10.73,0,16.095s0,10.73,0,16.095
			c0,5.421,0,10.843,0,16.264c0,5.365,0,10.73,0,16.095c0,0.557,0,1.113,0,1.823c-1.359-0.256-2.68,0.294-3.959-0.371
			c-0.267-0.139-0.671,0.014-1.005-0.027c-0.864-0.105-1.737,0.194-2.611-0.243c-0.766-0.383-1.672,0.013-2.559-0.362
			c-0.791-0.335-1.801-0.217-2.719-0.355c-2.379-0.357-4.717-0.87-7.071-1.325c-2.196-0.424-4.349-1.022-6.525-1.5
			c-2.645-0.581-5.195-1.604-7.771-2.48c-2.126-0.723-4.268-1.422-6.335-2.292c-2.213-0.932-4.347-2.05-6.513-3.091
			c-1.319-0.634-2.715-1.151-3.933-1.943c-2.261-1.47-4.676-2.668-6.953-4.116c-1.662-1.057-3.279-2.168-4.919-3.252
			c-0.847-0.56-1.599-1.247-2.487-1.745c-0.852-0.478-1.593-1.101-2.34-1.739c-1.351-1.155-2.867-2.118-4.219-3.272
			c-1.607-1.371-3.108-2.866-4.668-4.294c-0.645-0.59-1.127-1.373-2.012-1.683c-0.584-0.205-0.729-0.855-1.109-1.26
			c-0.523-0.557-1.033-1.115-1.614-1.628c-0.575-0.508-1.023-1.155-1.554-1.716c-0.582-0.615-1.273-1.142-1.779-1.812
			c-1.601-2.118-3.468-4.016-4.97-6.226c-0.751-1.106-1.641-2.154-2.49-3.209c-1.28-1.589-2.315-3.337-3.438-5.025
			c-1.605-2.413-3.002-4.956-4.474-7.451c-0.884-1.497-1.376-3.229-2.61-4.519c-0.218-1.391-1.265-2.442-1.622-3.726
			c-0.372-1.335-1.405-2.377-1.492-3.794c-1.167-1.656-1.541-3.665-2.269-5.497c-0.725-1.824-1.351-3.742-1.838-5.684
			c-0.396-1.575-0.978-3.105-1.308-4.707c-0.223-1.083-0.613-2.134-0.794-3.222c-0.246-1.472-0.814-2.868-0.914-4.378
			c-0.055-0.834-0.351-1.653-0.543-2.478c-0.023-0.101-0.097-0.193-0.107-0.293c-0.119-1.195-0.212-2.393-0.35-3.586
			c-0.073-0.635-0.24-1.26-0.326-1.894c-0.086-0.637,0.199-1.337-0.341-1.895c-0.028-0.029-0.009-0.11-0.003-0.166
			c0.264-2.213-0.639-4.382-0.275-6.641c26.155,0,52.287,0,78.469,0c0.129,0.192,0.405,0.414,0.408,0.638
			c0.015,1.471,0.655,2.787,0.954,4.182c0.3,1.401,0.942,2.693,1.273,4.04c0.528,2.148,1.724,3.939,2.644,5.859
			c0.748,1.562,1.579,3.176,2.94,4.38C109.865,188.635,109.865,207.952,109.865,227.446z"/>
		<path class="st0" d="M177.945,227.469c0.189-0.888-0.187-1.674,0.256-2.504c0.168-0.315-0.2-0.878-0.203-1.328
			c-0.022-2.88-0.266-5.789,0.051-8.634c0.424-3.805,0.188-7.594,0.26-11.388c0.073-3.839,0.016-7.681,0.016-11.521
			s0-7.681,0-11.522c0-3.84,0-7.681,0-11.448c3.975-5.61,6.547-11.718,7.594-18.533c0.081-0.095,0.225-0.266,0.385-0.455
			c0.279,0.063,0.541,0.119,0.8,0.182c0.256,0.063,0.604,0.274,0.749,0.177c0.825-0.553,1.727-0.303,2.586-0.303
			c24.173-0.016,48.345-0.013,72.518-0.013c0.558,0,1.115,0,1.821,0c-0.182,1.407,0.257,2.776-0.356,4.112
			c-0.129,0.28,0,0.67-0.022,1.008c-0.106,1.648-0.025,3.341-0.391,4.93c-0.371,1.609-0.182,3.326-0.961,4.844
			c0.155,1.6-0.53,3.073-0.718,4.628c-0.182,1.508-0.61,3.004-1.097,4.45c-0.336,0.998-0.124,2.156-0.896,3.015
			c-0.029,1.791-1.018,3.317-1.41,5.017c-0.241,1.044-0.554,2.166-1.071,3.097c-0.548,0.987-0.671,2.089-1.212,3.068
			c-0.524,0.947-0.686,2.087-1.146,3.078c-1.233,2.654-2.501,5.294-3.829,7.902c-1.357,2.662-2.765,5.3-4.226,7.906
			c-0.649,1.158-1.49,2.208-2.23,3.315c-1.064,1.591-2.079,3.216-3.187,4.775c-0.878,1.236-1.909,2.362-2.795,3.593
			c-1.272,1.768-2.828,3.302-4.098,5.073c-0.39,0.543-0.965,0.95-1.419,1.452c-0.814,0.898-1.846,1.594-2.412,2.725
			c-0.358,0.715-1.337,0.859-1.65,1.651c-0.701,0.012-0.54,0.845-1.045,1.085c-0.429,0.204-0.816,0.516-1.179,0.83
			c-0.426,0.369-0.807,0.789-1.204,1.191c-1.628,1.651-3.474,3.054-5.195,4.592c-1.715,1.533-3.643,2.765-5.382,4.253
			c-1.134,0.97-2.407,1.785-3.655,2.613c-2.166,1.435-4.313,2.913-6.562,4.208c-1.726,0.994-3.471,1.967-5.238,2.89
			c-1.945,1.016-3.915,1.994-5.926,2.872c-2.342,1.023-4.667,2.079-7.072,2.975c-1.953,0.728-3.997,1.224-5.879,2.168
			c-0.643,0.322-1.459,0.279-2.156,0.518c-1.545,0.53-3.111,0.96-4.698,1.345c-1.074,0.261-2.123,0.617-3.221,0.81
			c-1.357,0.239-2.694,0.589-4.047,0.856c-1.587,0.313-3.159,0.751-4.801,0.683c-0.736,0.568-1.674,0.084-2.38,0.388
			c-0.771,0.333-1.536,0.105-2.246,0.315c-1.248,0.368-2.572,0.048-3.746,0.377c-1.393,0.391-2.723,0.127-4.118,0.311
			c0-70.198,0-140.272,0-210.359c0.147-0.147,0.307-0.307,0.498-0.498c0.549,0.12,1.115,0.296,1.694,0.355
			c0.615,0.063,1.245-0.03,1.861,0.027c0.58,0.053,1.146,0.248,1.726,0.316c0.534,0.063,1.114-0.125,1.553,0.349
			c1.059-0.189,2.077,0.129,3.073,0.362c1.947,0.456,3.999,0.526,5.871,1.497c0,63.069,0,126.139,0,189.308
			c1.362-0.279,2.673-0.469,3.94-0.821c3.482-0.968,6.932-2.045,10.331-3.278c0.737-0.267,1.51-0.456,2.211-0.795
			c1.274-0.617,2.623-1.065,3.888-1.652c0.939-0.436,1.921-0.83,2.844-1.325c0.922-0.495,1.885-0.92,2.786-1.449
			c2.18-1.28,4.463-2.364,6.583-3.776c1.663-1.108,3.338-2.23,5.085-3.229c1.068-0.61,2.005-1.453,2.982-2.215
			c1.625-1.267,3.283-2.499,4.84-3.845c1.719-1.487,3.359-3.067,4.998-4.643c1.465-1.409,2.969-2.793,4.298-4.325
			c2.034-2.342,4.048-4.699,5.959-7.156c1.854-2.383,3.515-4.874,5.192-7.365c0.883-1.312,1.617-2.724,2.476-4.053
			c1.829-2.829,3.221-5.899,4.661-8.918c1.206-2.528,2.188-5.189,3.171-7.834c0.805-2.165,1.329-4.409,2.146-6.564
			c0.334-0.881,0.505-1.826,0.732-2.747c0.289-1.176,0.56-2.357,0.857-3.616c-15.94,0-31.792,0-47.824,0
			c-0.15,0.36-0.312,0.856-0.552,1.311c-0.933,1.762-1.519,3.705-2.826,5.279c-0.273,0.329-0.346,0.903-0.348,1.365
			c-0.021,7.45-0.015,14.899-0.015,22.468c1.756-1.151,2.69-2.951,4.113-4.272c1.416-1.313,2.595-2.827,3.714-4.392
			c1.121-1.568,2.285-3.108,3.341-4.719c1.01-1.538,1.906-3.151,2.92-4.843c6.029,0,12.209,0,18.475,0
			c-1.05,2.178-2.025,4.302-3.096,6.377c-0.481,0.931-1.082,1.832-1.498,2.771c-0.693,1.565-1.721,2.9-2.567,4.355
			c-0.852,1.466-1.78,2.895-2.769,4.273c-0.887,1.236-1.921,2.365-2.856,3.567c-1.669,2.145-3.459,4.178-5.396,6.086
			c-0.66,0.65-1.083,1.65-1.845,2.054c-0.649,0.344-0.848,0.99-1.443,1.324c-0.567,0.319-0.96,0.932-1.478,1.357
			c-2.226,1.826-4.365,3.746-6.702,5.452c-1.733,1.265-3.526,2.435-5.288,3.648c-3.079,2.121-6.431,3.775-9.768,5.447
			c-1.169,0.586-2.478,0.855-3.571,1.617C178.688,227.507,178.358,227.435,177.945,227.469z"/>
		<path class="st0" d="M149.9,15.885c0-5.116,0-10.238,0-15.359c0.153-0.158,0.31-0.32,0.51-0.526
			c1.462,0.622,3.028,0.3,4.563,0.399c0.86,0.055,1.715,0.21,2.57,0.33c0.8,0.113,1.666-0.285,2.41,0.326
			c0.101,0.083,0.329,0.008,0.499,0.012c0.813,0.02,1.603-0.001,2.415,0.299c0.681,0.251,1.538-0.164,2.216,0.379
			c1.064-0.229,2.044,0.296,3.078,0.341c0.966,0.042,1.884,0.321,2.8,0.6c0.664,0.202,1.44-0.145,2.03,0.414
			c2.947,0.398,5.772,1.324,8.659,1.964c1.814,0.402,3.535,1.065,5.326,1.512c1.708,0.426,3.409,1.036,5.059,1.67
			c1.506,0.579,3.011,1.181,4.53,1.736c1.471,0.538,2.951,1.084,4.369,1.718c3.719,1.663,7.393,3.439,11.002,5.328
			c1.718,0.899,3.458,1.793,5.075,2.89c1.58,1.072,3.2,2.103,4.835,3.067c2.244,1.324,4.442,2.741,6.482,4.31
			c1.803,1.388,3.697,2.677,5.428,4.19c1.583,1.384,3.15,2.834,4.92,4.008c0.046,0.031,0.078,0.081,0.121,0.118
			c3.722,3.252,7.197,6.764,10.601,10.337c0.984,1.033,2.009,2.067,2.894,3.192c1.676,2.129,3.541,4.096,5.108,6.33
			c0.829,1.182,1.844,2.275,2.699,3.471c0.968,1.354,1.999,2.664,2.941,4.036c1.051,1.53,2.014,3.12,3.048,4.662
			c1.034,1.541,1.75,3.283,2.989,4.692c0.289,1.456,1.216,2.564,2.036,3.73c-0.258,0.794,0.592,1.093,0.78,1.713
			c0.193,0.638,0.669,1.185,0.977,1.794c0.283,0.557,0.498,1.148,0.76,1.717c0.305,0.665,0.624,1.323,0.943,1.981
			c0.319,0.658,0.712,1.29,0.959,1.974c0.851,2.357,2.011,4.589,2.783,6.98c0.351,1.089,0.966,2.096,1.278,3.193
			c0.632,2.219,1.718,4.287,2.114,6.584c0.104,0.605,0.524,1.153,0.643,1.758c0.368,1.868,0.992,3.669,1.385,5.53
			c0.238,1.13,0.577,2.24,0.916,3.345c0.204,0.666-0.149,1.443,0.427,2.024c-0.031,1.581,0.803,3.036,0.678,4.631
			c0.456,0.631,0.152,1.424,0.385,2.044c0.265,0.705,0.074,1.468,0.341,2.057c0.374,0.824,0.23,1.616,0.287,2.423
			c0.046,0.645,0.462,1.195,0.366,1.895c-0.079,0.573-0.194,1.222,0.311,1.723c0.028,0.028,0.001,0.109,0.004,0.166
			c0.13,2.876,0.261,5.752,0.395,8.678c-5.259,0-10.381,0-15.52,0c-0.143-0.143-0.303-0.303-0.464-0.464
			c0-0.619,0.027-1.241-0.005-1.861c-0.099-1.874-0.091-3.767-0.388-5.61c-0.148-0.92-0.091-1.873-0.335-2.734
			c-0.247-0.873-0.107-1.759-0.325-2.574c-0.398-1.489-0.351-3.053-0.929-4.521c-0.236-0.6-0.228-1.359-0.359-2.047
			c-0.367-1.927-0.91-3.813-1.301-5.722c-0.489-2.39-1.434-4.647-1.812-7.063c-0.142-0.907-0.618-1.769-0.991-2.631
			c-0.499-1.152-0.833-2.364-1.275-3.535c-0.571-1.514-1.184-3.013-1.777-4.517c-1.478-3.744-3.26-7.351-5.087-10.934
			c-0.645-1.265-1.444-2.452-2.171-3.676c-0.512-0.861-1.016-1.74-1.491-2.608c-1.068-1.948-2.348-3.756-3.467-5.667
			c-0.651-1.11-1.605-2.037-2.336-3.105c-1.071-1.567-2.207-3.074-3.474-4.491c-1.127-1.26-2.237-2.547-3.222-3.918
			c-0.818-1.139-1.939-1.995-2.749-3.098c-1.335-1.82-3.023-3.28-4.593-4.856c-1.763-1.77-3.572-3.503-5.471-5.124
			c-2.016-1.722-4.262-3.182-6.215-4.967c-1.377-1.258-3.023-2.089-4.429-3.286c-1.333-1.135-2.857-2.052-4.33-3.015
			c-1.237-0.808-2.513-1.556-3.786-2.307c-1.177-0.695-2.434-1.273-3.538-2.067c-0.748-0.538-1.679-0.574-2.403-1.22
			c-0.63-0.562-1.599-0.733-2.39-1.13c-0.797-0.401-1.546-0.898-2.343-1.298c-0.792-0.397-1.607-0.755-2.431-1.08
			c-1.989-0.786-3.978-1.594-5.939-2.426c-2.517-1.067-5.094-1.891-7.68-2.725c-2.249-0.726-4.483-1.482-6.807-1.984
			c-2.072-0.447-4.082-1.182-6.221-1.323c-0.769-0.6-1.748-0.398-2.614-0.617c-0.864-0.218-1.812-0.35-2.71-0.489
			c-0.804-0.125-1.689,0.001-2.393-0.3c-0.827-0.354-1.618-0.199-2.421-0.294c-0.691-0.082-1.317-0.446-2.065-0.354
			c-0.691,0.084-1.4,0.081-2.072-0.294c-0.258-0.144-0.668-0.054-1.003-0.018C152.956,16.485,151.458,16.098,149.9,15.885z"/>
		<path class="st0" d="M137.419,0.035c0.575,0.331,0.589,0.755,0.586,1.228c-0.016,2.823-0.008,5.646-0.008,8.47
			c0,2.031,0,4.061,0,6.212c-1.598-0.077-3.106,0.54-4.727,0.403c-0.785-0.066-1.599,0.19-2.398,0.309
			c-0.744,0.111-1.556-0.277-2.242,0.326c-0.096,0.084-0.332-0.009-0.497,0.015c-0.744,0.11-1.486-0.162-2.259,0.288
			c-0.552,0.322-1.333,0.035-2.059,0.323c-0.757,0.3-1.693,0.194-2.556,0.333c-1.058,0.171-2.16,0.285-3.179,0.565
			c-1.005,0.276-2.11,0.261-3.025,0.86c-2.694,0.084-5.088,1.521-7.756,1.722c-1.67,0.766-3.45,1.217-5.185,1.795
			c-2.082,0.694-4.115,1.521-6.174,2.275c-1.416,0.519-2.657,1.496-4.216,1.678c-1.128,1.134-2.747,1.284-4.074,2.027
			c-1.279,0.715-2.616,1.326-3.898,2.034c-1.245,0.688-2.444,1.458-3.68,2.162c-0.956,0.545-2.008,0.946-2.895,1.582
			c-2.036,1.459-4.269,2.607-6.27,4.132c-0.914,0.697-1.881,1.376-2.885,1.986c-1.103,0.67-2.119,1.509-3.079,2.379
			c-1.547,1.403-3.223,2.647-4.797,4.02c-2.51,2.188-5.032,4.357-7.343,6.754c-0.957,0.993-2.01,1.881-2.796,3.064
			c-0.757,1.14-1.961,1.917-2.756,3.092c-0.798,1.18-1.922,2.133-2.83,3.245c-1.264,1.55-2.477,3.142-3.679,4.742
			c-0.803,1.068-1.571,2.165-2.314,3.275c-1.561,2.33-3.153,4.634-4.527,7.093c-0.558,0.999-1.143,2.028-1.801,2.995
			c-0.614,0.902-1.019,1.944-1.532,2.916c-0.783,1.483-1.705,2.908-2.34,4.451c-0.913,2.219-2.22,4.278-2.741,6.657
			c-1.247,1.682-1.503,3.779-2.33,5.643c-0.802,1.808-1.311,3.755-1.842,5.671c-0.519,1.874-1.253,3.682-1.609,5.608
			c-0.209,1.132-0.6,2.23-0.924,3.34c-0.195,0.667,0.146,1.44-0.412,2.031c0.025,1.581-0.817,3.034-0.678,4.632
			c-0.505,0.683-0.066,1.613-0.403,2.195c-0.428,0.74,0.007,1.491-0.307,2.081c-0.552,1.041-0.187,2.145-0.43,3.206
			c-0.243,1.063,0.012,2.244-0.254,3.296c-0.428,1.693-0.193,3.398-0.34,5.129c-5.279,0-10.514,0-15.889,0
			c0-1.32-0.184-2.691,0.051-3.986c0.24-1.32-0.006-2.703,0.363-3.911c0.406-1.331,0.058-2.674,0.54-4
			c0.415-1.142,0.291-2.481,0.4-3.733c0.033-0.375,0.2-0.753,0.245-1.07c0.213-1.489,0.647-2.945,0.749-4.439
			c0.097-1.406,0.47-2.761,0.809-4.088c0.312-1.22,0.562-2.466,0.868-3.688c0.385-1.534,0.813-3.057,1.234-4.579
			c1.033-3.734,2.338-7.384,3.565-11.058c0.445-1.334,1.077-2.604,1.562-3.925c0.936-2.551,2.363-4.892,3.17-7.496
			c0.921-0.942,1.077-2.29,1.74-3.335c0.683-1.077,1.17-2.238,1.806-3.327c1.143-1.957,2.248-3.934,3.438-5.867
			c1.362-2.211,2.664-4.455,4.198-6.555c1.171-1.603,2.114-3.36,3.481-4.836c0.755-0.815,1.3-1.823,1.946-2.741
			c0.186-0.265,0.373-0.534,0.593-0.769c0.929-0.995,1.798-2.033,2.515-3.194c0.058-0.094,0.156-0.162,0.237-0.241
			c1.413-1.388,2.698-2.886,3.833-4.511c1.203-0.62,1.717-1.917,2.718-2.754c0.993-0.829,1.853-1.817,2.771-2.735
			c0.958-0.958,1.846-2.003,2.89-2.856c1.969-1.607,3.713-3.465,5.705-5.035c1.751-1.38,3.424-2.877,5.234-4.155
			c1.829-1.292,3.573-2.71,5.48-3.901c1.853-1.157,3.554-2.564,5.438-3.661c1.464-0.852,2.812-1.922,4.33-2.624
			c1.776-0.821,3.367-1.938,5.108-2.796c1.734-0.855,3.484-1.677,5.224-2.52c1.41-0.683,2.829-1.348,4.267-1.968
			c1.485-0.641,3.039-1.14,4.51-1.787c2.254-0.991,4.595-1.724,6.884-2.604c1.513-0.582,3.114-0.929,4.66-1.43
			c1.552-0.504,3.132-0.899,4.711-1.303c1.024-0.262,2.103-0.438,3.059-0.801c0.717-0.273,1.468-0.03,2.175-0.5
			c0.568-0.377,1.494-0.164,2.187-0.417c1.356-0.494,2.811-0.442,4.179-0.943c0.991-0.363,2.149-0.259,3.229-0.394
			c0.635-0.079,1.264-0.213,1.893-0.335c0.63-0.122,1.354,0.304,1.901-0.323c0.026-0.029,0.108-0.022,0.161-0.013
			c1.339,0.241,2.602-0.346,3.925-0.361c1.084-0.012,2.163-0.249,3.248-0.306c1.07-0.056,2.146,0.012,3.217-0.028
			C136.807,0.362,137.095,0.161,137.419,0.035z"/>
		<path class="st0" d="M149.911,288.14c0-5.332,0-10.568,0-15.961c0.444,0,0.944-0.07,1.416,0.015
			c0.909,0.164,1.693-0.388,2.573-0.36c0.903,0.029,1.887,0.232,2.689-0.052c0.943-0.334,1.853-0.138,2.758-0.295
			c1.049-0.181,2.13-0.202,3.144-0.581c0.148-0.055,0.317-0.085,0.474-0.078c1.866,0.09,3.683-0.411,5.462-0.766
			c2.1-0.419,4.208-0.973,6.3-1.486c1.999-0.49,3.952-1.167,5.995-1.533c1.419-0.254,2.773-0.918,4.178-1.344
			c0.993-0.301,1.963-0.714,2.978-0.979c0.963-0.251,1.799-0.81,2.788-1.056c0.943-0.235,1.766-0.91,2.696-1.243
			c1.484-0.531,2.842-1.328,4.292-1.909c1.754-0.703,3.455-1.509,5.085-2.439c2.422-1.382,4.945-2.572,7.284-4.126
			c1.443-0.959,2.989-1.79,4.427-2.78c1.143-0.787,2.257-1.62,3.429-2.36c1.183-0.748,2.301-1.568,3.396-2.44
			c1.831-1.459,3.625-2.97,5.467-4.408c4.296-3.354,7.976-7.337,11.743-11.22c1.518-1.564,3.04-3.175,4.366-4.939
			c1.561-2.076,3.243-4.063,4.767-6.164c1.594-2.198,3.148-4.434,4.56-6.75c1.176-1.929,2.326-3.882,3.466-5.834
			c1.011-1.73,1.848-3.533,2.761-5.303c0.911-1.765,1.809-3.539,2.631-5.347c1.275-2.804,2.432-5.653,3.415-8.583
			c0.564-1.679,1.237-3.33,1.74-5.035c0.55-1.864,1.082-3.733,1.598-5.606c0.56-2.029,1.146-4.053,1.609-6.104
			c0.163-0.722,0.27-1.468,0.41-2.203c0.11-0.575-0.016-1.159,0.325-1.738c0.252-0.428-0.22-1.116,0.363-1.545
			c0.054-0.04,0.006-0.216,0.007-0.329c0.009-0.815,0.045-1.603,0.297-2.414c0.216-0.696,0.165-1.475,0.325-2.23
			c0.304-1.437,0.133-2.975,0.431-4.414c0.386-1.864,0.221-3.733,0.323-5.536c0.178-0.178,0.297-0.297,0.452-0.452
			c5.087,0,10.209,0,15.454,0c0,1.178,0.23,2.409-0.058,3.503c-0.365,1.387-0.165,2.745-0.29,4.109
			c-0.063,0.692-0.226,1.374-0.328,2.063c-0.102,0.689,0.237,1.443-0.33,2.072c-0.084,0.094-0.009,0.328-0.012,0.498
			c-0.018,0.813,0.002,1.604-0.3,2.415c-0.254,0.681-0.041,1.462-0.323,2.237c-0.343,0.943-0.24,2.039-0.404,3.057
			c-0.194,1.207-0.36,2.436-0.733,3.593c-0.408,1.264-0.564,2.574-0.931,3.844c-0.686,2.376-1.181,4.802-1.88,7.181
			c-0.872,2.967-1.877,5.885-2.893,8.801c-0.48,1.379-1.044,2.729-1.571,4.092c-1.792,4.635-3.929,9.115-6.242,13.505
			c-0.929,1.764-1.945,3.497-2.929,5.235c-1.595,2.819-3.297,5.551-5.175,8.183c-1.055,1.479-2.002,3.032-3.125,4.47
			c-1.185,1.518-2.226,3.146-3.379,4.69c-0.623,0.834-1.339,1.598-2.028,2.381c-0.95,1.078-2.062,2.048-2.838,3.238
			c-1.192,1.827-3.19,2.913-4.226,4.848c-2.74,1.989-4.772,4.726-7.311,6.919c-0.788,0.681-1.587,1.351-2.356,2.059
			c-0.767,0.706-1.525,1.44-2.38,2.027c-2.358,1.619-4.442,3.581-6.799,5.215c-2.724,1.889-5.479,3.74-8.152,5.704
			c-0.814,0.598-1.902,0.731-2.578,1.552c-2.316,0.891-4.197,2.562-6.493,3.543c-1.466,0.627-2.826,1.602-4.305,2.288
			c-2.225,1.033-4.455,2.056-6.698,3.049c-2.816,1.247-5.678,2.383-8.588,3.394c-2.177,0.756-4.379,1.43-6.583,2.103
			c-1.508,0.461-3.014,0.919-4.547,1.29c-1.587,0.384-3.159,0.833-4.749,1.208c-1.345,0.318-2.685,0.704-4.067,0.797
			c-0.506,0.034-0.926,0.275-1.386,0.341c-1.49,0.214-2.947,0.595-4.454,0.748c-0.852,0.086-1.719,0.197-2.568,0.331
			c-0.859,0.135-1.762,0.126-2.561,0.351c-1.156,0.327-2.322,0.076-3.423,0.324c-1.372,0.309-2.79,0.04-4.087,0.366
			C152.428,288.157,151.208,287.982,149.911,288.14z"/>
		<path class="st0" d="M0.068,150.186c5.234,0,10.313,0,15.448,0c0.116,0.137,0.26,0.309,0.457,0.542
			c0.004,0.073,0.014,0.236,0.023,0.399c0.113,2.212,0.195,4.426,0.36,6.634c0.043,0.571,0.374,1.097,0.342,1.726
			c-0.026,0.524-0.118,1.049,0.162,1.619c0.247,0.502,0.02,1.216,0.169,1.793c0.559,2.165,0.821,4.389,1.259,6.574
			c0.449,2.242,0.989,4.466,1.47,6.7c0.22,1.025,0.579,2.021,0.767,3.07c0.183,1.022,0.6,2.003,0.931,2.996
			c0.43,1.289,0.884,2.571,1.316,3.859c0.615,1.833,1.349,3.62,2.027,5.428c1.71,4.56,3.89,8.903,6.131,13.213
			c0.678,1.304,1.485,2.558,2.212,3.837c0.867,1.526,1.866,2.953,2.764,4.445c0.988,1.643,2.092,3.198,3.157,4.783
			c1.294,1.926,2.687,3.773,4.162,5.572c1.7,2.072,3.393,4.143,5.137,6.18c2.488,2.906,5.326,5.448,7.958,8.199
			c0.717,0.75,1.571,1.37,2.364,2.047c0.793,0.677,1.374,1.571,2.363,2.061c0.724,0.358,0.993,1.359,1.908,1.533
			c1.044,1.392,2.634,2.124,3.936,3.205c1.558,1.295,3.276,2.405,4.96,3.542c1.802,1.217,3.595,2.462,5.486,3.528
			c1.737,0.979,3.443,2.017,5.194,2.975c1.98,1.084,3.932,2.237,5.997,3.129c2.825,1.22,5.59,2.566,8.485,3.649
			c2.935,1.098,5.903,2.102,8.828,3.222c0.839,0.321,1.726,0.562,2.565,0.728c1.978,0.393,3.881,1.055,5.852,1.474
			c1.796,0.381,3.64,0.639,5.388,1.276c0.399,0.145,0.901-0.022,1.346,0.035c0.357,0.046,0.692,0.276,1.048,0.315
			c1.775,0.193,3.493,0.819,5.308,0.689c1.008,0.702,2.211,0.216,3.322,0.55c1.085,0.327,2.372-0.068,3.502,0.174
			c1.248,0.267,2.49,0.256,3.779,0.3c0,5.305,0,10.54,0,15.916c-1.047-0.148-2.136,0.334-3.179-0.318
			c-0.163-0.102-0.445-0.04-0.667-0.014c-2.119,0.247-4.183-0.454-6.298-0.363c-0.568,0.024-1.144-0.238-1.723-0.308
			c-0.533-0.064-1.092,0.104-1.568-0.332c-0.123-0.113-0.436-0.02-0.662-0.016c-1.251,0.018-2.463-0.17-3.629-0.645
			c-0.194-0.079-0.444-0.006-0.663-0.037c-0.58-0.083-1.156,0.149-1.756-0.29c-0.42-0.308-1.214,0.217-1.691-0.384
			c-1.306,0.019-2.542-0.364-3.783-0.685c-2.445-0.631-4.888-1.297-7.333-1.899c-3.837-0.944-7.501-2.368-11.252-3.544
			c-1.335-0.419-2.593-1.094-3.926-1.558c-2.566-0.894-4.94-2.239-7.478-3.219c-0.885-0.342-1.745-0.979-2.632-1.417
			c-1.69-0.835-3.346-1.733-5.019-2.598c-1.872-0.967-3.676-2.054-5.471-3.163c-2.254-1.394-4.522-2.761-6.692-4.284
			c-1.444-1.013-2.912-1.994-4.325-3.048c-1.992-1.486-3.964-3.001-5.903-4.556c-0.768-0.616-1.497-1.288-2.239-1.934
			c-2.104-1.831-4.084-3.805-6.116-5.718c-0.497-0.468-1.05-0.883-1.504-1.387c-0.47-0.521-0.788-1.195-1.568-1.349
			c-1.051-1.998-3.188-3.036-4.344-4.971c-0.553-0.926-1.523-1.558-2.157-2.492c-0.738-1.087-1.774-1.966-2.592-3.005
			c-1.567-1.991-3.086-4.021-4.595-6.056c-1.052-1.419-2.09-2.851-3.072-4.319c-0.94-1.406-1.767-2.888-2.703-4.297
			c-1.171-1.762-1.981-3.738-3.284-5.422c-0.281-0.363-0.396-0.85-0.613-1.266c-1.233-2.37-2.571-4.691-3.685-7.115
			c-1.284-2.795-2.67-5.551-3.613-8.499c-0.412-1.287-0.969-2.54-1.584-3.745c-0.459-0.899-0.557-1.895-0.98-2.818
			c-0.395-0.86-0.718-1.85-0.852-2.876c-0.147-1.122-0.659-2.198-1.02-3.291c-0.512-1.549-0.988-3.105-1.318-4.708
			c-0.212-1.034-0.425-2.103-0.79-3.061c-0.273-0.716-0.049-1.466-0.5-2.174c-0.37-0.58-0.166-1.494-0.414-2.19
			c-0.523-1.466-0.459-3.034-0.951-4.514c-0.335-1.009-0.251-2.153-0.388-3.233c-0.074-0.579-0.227-1.148-0.33-1.724
			c-0.103-0.577,0.259-1.239-0.328-1.734c-0.056-0.047-0.007-0.216-0.013-0.328c-0.112-1.93-0.207-3.861-0.347-5.788
			c-0.063-0.86-0.26-1.711-0.318-2.572C0.024,152.002,0.068,151.156,0.068,150.186z"/>
	</g>
</g>
</svg>